<mxfile host="app.diagrams.net" agent="Mozilla/5.0 (Windows NT 10.0; Win64; x64) AppleWebKit/537.36 (KHTML, like Gecko) Chrome/130.0.0.0 Safari/537.36" version="28.0.6">
  <diagram name="Page-1" id="e7e014a7-5840-1c2e-5031-d8a46d1fe8dd">
    <mxGraphModel dx="1426" dy="751" grid="1" gridSize="10" guides="1" tooltips="1" connect="1" arrows="1" fold="1" page="1" pageScale="1" pageWidth="1169" pageHeight="826" background="none" math="0" shadow="0">
      <root>
        <mxCell id="0" />
        <mxCell id="1" parent="0" />
        <mxCell id="53WcDNVTxiJR_yVBhahT-41" value="" style="html=1;points=[[0,0,0,0,5],[0,1,0,0,-5],[1,0,0,0,5],[1,1,0,0,-5]];perimeter=orthogonalPerimeter;outlineConnect=0;targetShapes=umlLifeline;portConstraint=eastwest;newEdgeStyle={&quot;curved&quot;:0,&quot;rounded&quot;:0};" vertex="1" parent="1">
          <mxGeometry x="1010" y="780" width="10" height="850" as="geometry" />
        </mxCell>
        <mxCell id="53WcDNVTxiJR_yVBhahT-42" value="商品id、chn" style="html=1;verticalAlign=bottom;startArrow=oval;endArrow=block;startSize=8;curved=0;rounded=0;entryX=0;entryY=0;entryDx=0;entryDy=5;" edge="1" parent="1" target="53WcDNVTxiJR_yVBhahT-46">
          <mxGeometry relative="1" as="geometry">
            <mxPoint x="1020" y="825" as="sourcePoint" />
            <mxPoint as="offset" />
          </mxGeometry>
        </mxCell>
        <mxCell id="53WcDNVTxiJR_yVBhahT-43" value="生成&lt;span style=&quot;background-color: light-dark(#ffffff, var(--ge-dark-color, #121212)); color: light-dark(rgb(0, 0, 0), rgb(255, 255, 255));&quot;&gt;brid&lt;/span&gt;" style="html=1;verticalAlign=bottom;startArrow=oval;endArrow=block;startSize=8;curved=0;rounded=0;entryX=0;entryY=0;entryDx=0;entryDy=5;" edge="1" parent="1" source="53WcDNVTxiJR_yVBhahT-46" target="53WcDNVTxiJR_yVBhahT-50">
          <mxGeometry relative="1" as="geometry">
            <mxPoint x="1190" y="850" as="sourcePoint" />
            <mxPoint as="offset" />
          </mxGeometry>
        </mxCell>
        <mxCell id="53WcDNVTxiJR_yVBhahT-44" value="信息获取获取" style="shape=umlLifeline;perimeter=lifelinePerimeter;whiteSpace=wrap;html=1;container=1;dropTarget=0;collapsible=0;recursiveResize=0;outlineConnect=0;portConstraint=eastwest;newEdgeStyle={&quot;curved&quot;:0,&quot;rounded&quot;:0};" vertex="1" parent="1">
          <mxGeometry x="1115" y="710" width="100" height="920" as="geometry" />
        </mxCell>
        <mxCell id="53WcDNVTxiJR_yVBhahT-45" value="&lt;span style=&quot;color: rgb(31, 31, 31); font-family: system-ui, sans-serif; text-align: start; text-wrap-mode: wrap; background-color: rgb(255, 255, 255);&quot;&gt;computePageDetail&lt;/span&gt;" style="html=1;points=[[0,0,0,0,5],[0,1,0,0,-5],[1,0,0,0,5],[1,1,0,0,-5]];perimeter=orthogonalPerimeter;outlineConnect=0;targetShapes=umlLifeline;portConstraint=eastwest;newEdgeStyle={&quot;curved&quot;:0,&quot;rounded&quot;:0};" vertex="1" parent="53WcDNVTxiJR_yVBhahT-44">
          <mxGeometry x="45" y="230" width="10" height="80" as="geometry" />
        </mxCell>
        <mxCell id="53WcDNVTxiJR_yVBhahT-46" value="getReplayData接口" style="html=1;points=[[0,0,0,0,5],[0,1,0,0,-5],[1,0,0,0,5],[1,1,0,0,-5]];perimeter=orthogonalPerimeter;outlineConnect=0;targetShapes=umlLifeline;portConstraint=eastwest;newEdgeStyle={&quot;curved&quot;:0,&quot;rounded&quot;:0};" vertex="1" parent="53WcDNVTxiJR_yVBhahT-44">
          <mxGeometry x="45" y="110" width="10" height="80" as="geometry" />
        </mxCell>
        <mxCell id="53WcDNVTxiJR_yVBhahT-47" value="商品id、chn" style="html=1;verticalAlign=bottom;startArrow=oval;endArrow=block;startSize=8;curved=0;rounded=0;entryX=0;entryY=0;entryDx=0;entryDy=5;" edge="1" parent="1" source="53WcDNVTxiJR_yVBhahT-41" target="53WcDNVTxiJR_yVBhahT-45">
          <mxGeometry relative="1" as="geometry">
            <mxPoint x="1090" y="945" as="sourcePoint" />
          </mxGeometry>
        </mxCell>
        <mxCell id="53WcDNVTxiJR_yVBhahT-48" value="接口返回json提取需要的元素作为入参" style="html=1;verticalAlign=bottom;endArrow=block;curved=0;rounded=0;entryX=0;entryY=1;entryDx=0;entryDy=-5;entryPerimeter=0;" edge="1" parent="1" source="53WcDNVTxiJR_yVBhahT-45" target="53WcDNVTxiJR_yVBhahT-50">
          <mxGeometry width="80" relative="1" as="geometry">
            <mxPoint x="1460" y="890" as="sourcePoint" />
            <mxPoint x="1540" y="890" as="targetPoint" />
          </mxGeometry>
        </mxCell>
        <mxCell id="53WcDNVTxiJR_yVBhahT-49" value="试算接口" style="shape=umlLifeline;perimeter=lifelinePerimeter;whiteSpace=wrap;html=1;container=1;dropTarget=0;collapsible=0;recursiveResize=0;outlineConnect=0;portConstraint=eastwest;newEdgeStyle={&quot;curved&quot;:0,&quot;rounded&quot;:0};" vertex="1" parent="1">
          <mxGeometry x="1420" y="710" width="100" height="920" as="geometry" />
        </mxCell>
        <mxCell id="53WcDNVTxiJR_yVBhahT-50" value="&lt;span style=&quot;color: rgb(31, 31, 31); font-family: system-ui, sans-serif; text-align: start; text-wrap-mode: wrap; background-color: rgb(255, 255, 255);&quot;&gt;saveGenesTemporary&lt;/span&gt;" style="html=1;points=[[0,0,0,0,5],[0,1,0,0,-5],[1,0,0,0,5],[1,1,0,0,-5]];perimeter=orthogonalPerimeter;outlineConnect=0;targetShapes=umlLifeline;portConstraint=eastwest;newEdgeStyle={&quot;curved&quot;:0,&quot;rounded&quot;:0};" vertex="1" parent="53WcDNVTxiJR_yVBhahT-49">
          <mxGeometry x="45" y="140" width="10" height="120" as="geometry" />
        </mxCell>
        <mxCell id="53WcDNVTxiJR_yVBhahT-51" value="下单页信息获取" style="shape=umlLifeline;perimeter=lifelinePerimeter;whiteSpace=wrap;html=1;container=1;dropTarget=0;collapsible=0;recursiveResize=0;outlineConnect=0;portConstraint=eastwest;newEdgeStyle={&quot;curved&quot;:0,&quot;rounded&quot;:0};" vertex="1" parent="1">
          <mxGeometry x="1653" y="710" width="100" height="920" as="geometry" />
        </mxCell>
        <mxCell id="53WcDNVTxiJR_yVBhahT-52" value="&lt;span style=&quot;color: rgb(31, 31, 31); font-family: system-ui, sans-serif; text-align: start; text-wrap-mode: wrap; background-color: rgb(255, 255, 255);&quot;&gt;buyPageDetail&lt;/span&gt;" style="html=1;points=[[0,0,0,0,5],[0,1,0,0,-5],[1,0,0,0,5],[1,1,0,0,-5]];perimeter=orthogonalPerimeter;outlineConnect=0;targetShapes=umlLifeline;portConstraint=eastwest;newEdgeStyle={&quot;curved&quot;:0,&quot;rounded&quot;:0};" vertex="1" parent="53WcDNVTxiJR_yVBhahT-51">
          <mxGeometry x="45" y="160" width="10" height="270" as="geometry" />
        </mxCell>
        <mxCell id="53WcDNVTxiJR_yVBhahT-53" value="生成gid" style="html=1;verticalAlign=bottom;startArrow=oval;endArrow=block;startSize=8;curved=0;rounded=0;entryX=0;entryY=0;entryDx=0;entryDy=5;" edge="1" parent="1" source="53WcDNVTxiJR_yVBhahT-50" target="53WcDNVTxiJR_yVBhahT-52">
          <mxGeometry relative="1" as="geometry">
            <mxPoint x="1510" y="880" as="sourcePoint" />
          </mxGeometry>
        </mxCell>
        <mxCell id="53WcDNVTxiJR_yVBhahT-54" value="商品id、chn" style="html=1;verticalAlign=bottom;startArrow=oval;startFill=1;endArrow=block;startSize=8;curved=0;rounded=0;exitX=1;exitY=0.306;exitDx=0;exitDy=0;exitPerimeter=0;" edge="1" parent="1" source="53WcDNVTxiJR_yVBhahT-41" target="53WcDNVTxiJR_yVBhahT-52">
          <mxGeometry width="60" relative="1" as="geometry">
            <mxPoint x="1470" y="770" as="sourcePoint" />
            <mxPoint x="1530" y="770" as="targetPoint" />
          </mxGeometry>
        </mxCell>
        <mxCell id="53WcDNVTxiJR_yVBhahT-55" value="输入参数" style="shape=umlActor;verticalLabelPosition=bottom;verticalAlign=top;html=1;" vertex="1" parent="1">
          <mxGeometry x="1000" y="670" width="30" height="60" as="geometry" />
        </mxCell>
        <mxCell id="53WcDNVTxiJR_yVBhahT-56" value="核保接口" style="shape=umlLifeline;perimeter=lifelinePerimeter;whiteSpace=wrap;html=1;container=1;dropTarget=0;collapsible=0;recursiveResize=0;outlineConnect=0;portConstraint=eastwest;newEdgeStyle={&quot;curved&quot;:0,&quot;rounded&quot;:0};" vertex="1" parent="1">
          <mxGeometry x="1963" y="710" width="100" height="920" as="geometry" />
        </mxCell>
        <mxCell id="53WcDNVTxiJR_yVBhahT-57" value="checkpolicy" style="html=1;points=[[0,0,0,0,5],[0,1,0,0,-5],[1,0,0,0,5],[1,1,0,0,-5]];perimeter=orthogonalPerimeter;outlineConnect=0;targetShapes=umlLifeline;portConstraint=eastwest;newEdgeStyle={&quot;curved&quot;:0,&quot;rounded&quot;:0};" vertex="1" parent="53WcDNVTxiJR_yVBhahT-56">
          <mxGeometry x="45" y="210" width="10" height="170" as="geometry" />
        </mxCell>
        <mxCell id="53WcDNVTxiJR_yVBhahT-58" value="" style="html=1;verticalAlign=bottom;startArrow=oval;startFill=1;endArrow=block;startSize=8;curved=0;rounded=0;" edge="1" parent="1" target="53WcDNVTxiJR_yVBhahT-57">
          <mxGeometry width="60" relative="1" as="geometry">
            <mxPoint x="1710" y="1090" as="sourcePoint" />
            <mxPoint x="1980" y="980" as="targetPoint" />
          </mxGeometry>
        </mxCell>
        <mxCell id="53WcDNVTxiJR_yVBhahT-59" value="接口返回json提取需要的元素作为入参" style="edgeLabel;html=1;align=center;verticalAlign=middle;resizable=0;points=[];" vertex="1" connectable="0" parent="53WcDNVTxiJR_yVBhahT-58">
          <mxGeometry x="-0.0116" y="3" relative="1" as="geometry">
            <mxPoint x="27" y="-7" as="offset" />
          </mxGeometry>
        </mxCell>
        <mxCell id="53WcDNVTxiJR_yVBhahT-60" value="出单接口" style="shape=umlLifeline;perimeter=lifelinePerimeter;whiteSpace=wrap;html=1;container=1;dropTarget=0;collapsible=0;recursiveResize=0;outlineConnect=0;portConstraint=eastwest;newEdgeStyle={&quot;curved&quot;:0,&quot;rounded&quot;:0};" vertex="1" parent="1">
          <mxGeometry x="2150" y="710" width="100" height="910" as="geometry" />
        </mxCell>
        <mxCell id="53WcDNVTxiJR_yVBhahT-61" value="submitorder" style="html=1;points=[[0,0,0,0,5],[0,1,0,0,-5],[1,0,0,0,5],[1,1,0,0,-5]];perimeter=orthogonalPerimeter;outlineConnect=0;targetShapes=umlLifeline;portConstraint=eastwest;newEdgeStyle={&quot;curved&quot;:0,&quot;rounded&quot;:0};" vertex="1" parent="53WcDNVTxiJR_yVBhahT-60">
          <mxGeometry x="45" y="270" width="10" height="230" as="geometry" />
        </mxCell>
        <mxCell id="53WcDNVTxiJR_yVBhahT-62" value="接口返回核保policy" style="html=1;verticalAlign=bottom;endArrow=block;curved=0;rounded=0;entryX=0;entryY=0;entryDx=0;entryDy=5;" edge="1" target="53WcDNVTxiJR_yVBhahT-61" parent="1" source="53WcDNVTxiJR_yVBhahT-57">
          <mxGeometry relative="1" as="geometry">
            <mxPoint x="2030" y="985" as="sourcePoint" />
          </mxGeometry>
        </mxCell>
        <mxCell id="53WcDNVTxiJR_yVBhahT-64" value="dispatch" style="html=1;verticalAlign=bottom;startArrow=oval;startFill=1;endArrow=block;startSize=8;curved=0;rounded=0;" edge="1" parent="1">
          <mxGeometry width="60" relative="1" as="geometry">
            <mxPoint x="1600" y="910" as="sourcePoint" />
            <mxPoint x="1660" y="910" as="targetPoint" />
          </mxGeometry>
        </mxCell>
        <mxCell id="53WcDNVTxiJR_yVBhahT-65" value="与传给checkpolicy一致" style="html=1;verticalAlign=bottom;startArrow=oval;startFill=1;endArrow=block;startSize=8;curved=0;rounded=0;" edge="1" parent="1">
          <mxGeometry width="60" relative="1" as="geometry">
            <mxPoint x="1708" y="1130" as="sourcePoint" />
            <mxPoint x="2199.5" y="1130" as="targetPoint" />
          </mxGeometry>
        </mxCell>
      </root>
    </mxGraphModel>
  </diagram>
</mxfile>
